<?xml version="1.0" encoding="utf-8"?>
<!-- Generator: Adobe Illustrator 25.2.1, SVG Export Plug-In . SVG Version: 6.00 Build 0)  -->
<svg version="1.1" id="Layer_1" xmlns="http://www.w3.org/2000/svg" xmlns:xlink="http://www.w3.org/1999/xlink" x="0px" y="0px"
	 viewBox="0 0 1920 1080" style="enable-background:new 0 0 1920 1080;" xml:space="preserve">
<style type="text/css">
	.st0{fill:#161520;}
	.st1{fill:#662AE6;stroke:#662AE6;stroke-width:3.7661;stroke-miterlimit:10;}
	.st2{fill:#FEFEFE;}
</style>
<g>
	<path class="st0" d="M1343.7,905.4c-21.1,0-42.1,0-63.2,0c-2.7,0-6.2,0.7-6-3.7c0.2-4,3.4-3.3,5.9-3.3c42.5,0,85,0,127.5,0
		c0.4,0,0.8,0,1.1,0c2.6-0.1,5.4,0.3,5.4,3.5c0,3.2-2.7,3.6-5.3,3.6c-13.3,0-26.7,0-40,0C1360.6,905.4,1352.1,905.4,1343.7,905.4z"
		/>
	<path class="st0" d="M1256.6,905.4c-3.4,0-6.7,0-10.1,0c-2.5,0-4-1.2-4-3.6c0-2.2,1.5-3.3,3.7-3.3c6.9,0,13.8,0,20.8,0
		c2.2,0,3.6,1.1,3.6,3.4c0.1,2.6-1.4,3.7-3.9,3.7C1263.4,905.4,1260,905.4,1256.6,905.4C1256.6,905.4,1256.6,905.4,1256.6,905.4z"/>
</g>
<path class="st1" d="M929.7,745.2c-14.7,0-29.4-0.9-44,0.2c-24.3,1.8-48.5,5-70.9,15.5c-3,1.4-6.5,3-4.4,6.9
	c1.8,3.3,5.3,1.8,7.9,0.4c12.1-6.8,25.5-9.7,39-12c37.5-6.2,75.3-4.9,113.1-4.6c10.6,0.1,14.5,8.1,17.7,16.1c5.5,13.8,8,28.2,10,43
	c2.4,18,1.7,36,1.4,54c-0.1,7.5-2,14.9-4.7,21.9c-4.3,11.1-14,15.1-24.8,16.2c-17.6,1.7-34.8-1.5-51.8-5.5
	c-13.8-3.2-27.4-4-41.6-0.1c-16.6,4.6-33.9,6.4-51.1,7.7c-19.1,1.4-38.3,1.8-57.5,2.3c-17.6,0.5-35-1.2-51.6-7
	c-17.3-6-33.1-15-47.7-26.1c-16.7-12.7-30.7-28-43-44.6c-12.4-16.7-22.6-35-30.3-54.5c-4.2-10.5-8.2-21.1-11.6-31.9
	c-3.5-11.3-6.3-22.7-8.4-34.3c-4.1-22.2-5.6-44.7-5.1-67.3c0.4-16.5,4.1-32.2,9.4-47.7c5.8-17,13.7-33,22.9-48.4
	c11.8-19.7,25.9-37.7,40.5-55.3c2.4-3,5.5-4.4,9.5-3.1c20.2,6.6,41.4,8.5,61.8,13.8c12.3,3.1,23,9.4,33,17
	c20.2,15.3,40.1,31,60.4,46.2c18.1,13.6,37.1,26,57.9,35.3c14.6,6.5,30.1,9.7,46,7.3c12.2-1.9,22-8.7,29.9-18.3
	c8.8-10.6,13.4-23.2,17.5-36c0.6-1.8,1.6-3.6,1.7-5.3c0.4-7.7,5-5,8.4-3.3c21.7,10.7,44.3,18.8,67.8,24c7.3,1.6,6.6,7.1,7.8,11.3
	c4.6,15.2,8.4,30.6,12.4,45.9c3.6,13.8,6.4,27.7,8.4,41.8c2.3,15.9,3.8,32,7.1,47.7c4.3,20.6,10.7,40.7,18.6,60.4
	c12.7,32,29,62.2,44.6,92.8c2.8,5.4,5.1,11.1,7.7,16.6c1.2,2.6,0.5,4.1-2.1,5.3c-6.1,3-12.7,4.8-19.2,6.1
	c-27.2,5.5-54.6,10-82.6,9.7c-6.8-0.1-13.5-0.2-20.3-0.5c-11.6-0.5-17.1-8.8-15.2-20c4.6-27.4,4.6-54.5,0.6-81.8
	c-1.9-13.2-4.3-26.2-9.7-38.5c-1.5-3.5-3.2-7.1-5.4-10.2c-4.6-6.5-10.3-10.5-19.2-10.1C956.8,745.1,943.2,743.4,929.7,745.2z"/>
<path class="st1" d="M1013,123.7c16.5-0.7,31.3,1.2,46.2,3.5c16,2.5,31.4,6.9,46.5,12.3c18.4,6.6,36.2,15,52.8,25.5
	c21.6,13.7,41.5,29.5,58.5,48.7c16.7,18.8,29.5,39.9,38.3,63.5c5.5,14.8,8.9,29.8,9.3,45.5c0.1,4.2-0.8,5.4-5.4,4.7
	c-21.7-3.2-41.6,2.7-60.6,12.7c-2.5,1.3-3.3,3.4-2.1,5.6c1.3,2.3,4,2,6.1,0.9c11.2-6.3,23.4-9.7,35.8-12.2c17-3.4,33.6,4,43.4,18.4
	c13.5,20,22.1,42,27.6,65.4c0.7,3.1,2.1,5.9,2.1,9.2c0,2.5-0.5,3.6-3.2,2.8c-14.2-4.1-28.6-4.3-42.9-1.4c-6,1.2-12.2,2.1-17.6,5.3
	c-1.9,1.1-4.7,1.8-3.4,4.8c1.3,3,3.8,3.2,6.6,2.1c4.1-1.7,8.3-3.1,12.7-4.1c15.4-3.6,30.6-2.4,45.7,0.8c4.3,0.9,5.4,4.1,5.9,7.9
	c2.9,20.9,5.2,41.8,5.4,62.9c0.3,28.6-0.7,57.2-3.5,85.6c-1.9,18.8-4.7,37.6-8.5,56.1c-4,19.5-8.8,38.9-14.5,58
	c-3.6,11.9-6.8,24.1-10,36.1c-6,22-11,44.2-13.9,67c-2.9,23-7.3,45.9-10.3,68.9c-2.6,19.5-6.5,38.8-10.1,58.1
	c-2,10.7-3.4,21.8-8.2,31.8c-2.2,4.7-5.8,7.7-10.9,7.2c-12.6-1.1-24.3,1.9-36,6.3c-7.5,2.8-13.5-1.2-15.9-9.6
	c-0.6-2.1-0.8-4.5-0.8-6.7c0-31.6-0.8-63.3,0.8-94.8c0.6-12.2,0.7-24.4,1.7-36.6c2.9-34.4,4.3-68.9,8.1-103.3
	c1.5-13.6,2.1-27.4,3.4-41c2.2-23.1,1.7-46.1,2.3-69.2c0.4-12.4,0.2-24.9-1.1-37.2c-1.1-11.1-2.5-22.3-6.2-33.1
	c-1.5-4.2-3.9-5-7.3-3.5c-12.9,5.6-26.3,9.8-40,12.4c-19.9,3.9-40.1,6.1-60.4,4.9c-12.4-0.8-24.9-2.1-37.1-4.5
	c-25.1-5-49-13.6-71.7-25.5c-4.1-2.1-6.8-3.9-5.4-10.2c4.8-22.3,5.7-45.1,5.1-67.9c-0.1-2.3,0-4.5-3.4-4.6c-3.4-0.1-3.5,2.1-3.4,4.4
	c0.2,14.7-0.8,29.3-2.2,43.9c-2.4,26-7.4,51.4-20.6,74.4c-11,19.2-29.7,27.7-51.9,22.8c-23.5-5.1-43.2-17.6-62.6-30.8
	c-26-17.7-49.8-38.5-75.2-57.1c-13.4-9.8-28-15.9-44.2-19.4c-19.2-4.1-38.7-6.7-57.3-13.4c-14.8-5.3-28.2-13-37.9-25.6
	c-6.7-8.7-11.4-18.7-14-29.5c-3.5-14.3-5.2-28.8-4.7-43.5c0.5-13.7,3.2-27.1,7-40.3c5.4-18.7,12.1-36.9,19.9-54.7
	c8.3-18.9,17.6-37.3,27.9-55.2c14.3-24.6,29.8-48.4,47.6-70.8c16.8-21.2,35.4-40.5,56.2-57.6c13.4-11,28-20.2,44.3-26.5
	c21.1-8.2,42.9-9.4,65.2-6.2c9.5,1.3,18.9,2.8,28.3,4.6c12.2,2.4,23.8,6.4,35.3,10.6c17.2,6.2,33.6,14.4,49.3,23.7
	c20.4,12.1,39.7,25.7,57.4,41.6c0.7,0.6,1.4,1.2,2.1,1.9c1.9,2,4.5,3,6.3,0.7c1.6-2,0.5-4.3-1.5-6.4c-6.4-6.6-14.1-11.4-20.9-17.4
	C1016,126.8,1014.9,125.6,1013,123.7z M1065.4,359.6c0.6,17.1,13.4,29.4,29,29.6c17.8,0.3,30.3-13.4,30.2-29.1
	c-0.2-18.5-12.6-30.2-30-30.1C1078,330,1065.8,343.1,1065.4,359.6z"/>
<path class="st0" d="M691,898.8c-8.1-5.6-15.9-10.7-23.4-16.2c-27.6-20.1-48.1-46.2-64.9-75.6c-19-33.4-30.8-69.4-36.4-107.2
	c-4.2-28.1-6.6-56.5-0.4-84.8c5-22.8,13.8-44,25.1-64.3c13-23.5,29.2-44.7,46.7-64.9c0.7-0.8,1.4-1.7,2.4-3
	c-7.8-3.9-15.3-7.6-21.8-13.1c-19.4-16.2-27.4-37.8-30.9-62c-5.4-37.1,4.4-71.6,17.6-105.5c22.1-56.9,52.5-109,91.2-156.2
	c20.8-25.4,44.4-48,72.5-65.6c28.1-17.6,58.2-23.3,91.1-19.6c49.8,5.6,94.3,24.1,135.6,51.4c4.7,3.1,9.3,4.6,15.1,4.4
	c61.1-1.4,116.2,17,166.1,51.6c35.4,24.6,63.6,55.5,81.3,95.3c9.4,21,14.1,43.1,15,66.1c0.1,3.1,1.3,4.9,3.7,6.9
	c12,10.3,19.5,23.7,25.9,37.9c12.9,28.6,19,58.8,22.7,89.7c5.1,42.6,3.6,85.3-0.4,127.9c-4.6,48.6-15.6,96-30.1,142.5
	c-11,35.5-16.8,72-21.7,108.7c-5.6,41.3-12.1,82.5-21.8,123.1c-3.1,13.3-11.4,19.7-24.8,18.5c-7.8-0.7-14.8,0.4-21.8,3.6
	c-2.4,1.1-5,1.7-7.6,2.2c-14.4,3-24.2-3.8-25.4-18.5c-1.8-20.3-0.7-40.6-0.5-60.9c0-4.6-0.7-6.2-5.6-6c-8.6,0.4-17.3,0.1-26,0.1
	c-1.8,0-4.1,0.4-4.9-1.8c-1.5-4.6-3.2-4-5.1-0.4c-0.9,1.8-2.5,2.2-4.2,2.2c-19.7-0.8-38.7,5.1-58.2,6.3c-18.2,1.1-36.4,3.5-54.5-0.8
	c-3-0.7-5.8-1.7-8.2-3.5c-4.8-3.4-11.2-3.7-15.3-2c-17.4,7.2-35.1,6-52.8,3c-28.1-4.7-56-3.6-84.1,0.6c-36.4,5.4-73,6.7-109.8,4.3
	c-12.8-0.8-24.8-5.8-37.4-8c-1.2-0.2-1.7-1.4-2.6-2.1c-1.6-1.3-3.4-3.5-4.9,0.4c-0.8,2-3.1,1.9-5,1.9c-42.9,0-85.8,0-128.7,0
	c-2.6,0-5.3-0.3-5.3-3.6c0-3.3,2.8-3.5,5.4-3.5c28.4,0.1,56.8,0.3,85.2,0.4C663.1,898.9,677.1,898.8,691,898.8z M1013,123.7
	c1.9,1.9,3,3.1,4.2,4.1c6.8,6,14.6,10.8,20.9,17.4c2,2.1,3.1,4.4,1.5,6.4c-1.8,2.3-4.4,1.2-6.3-0.7c-0.7-0.7-1.4-1.3-2.1-1.9
	c-17.7-15.9-37-29.4-57.4-41.6c-15.7-9.4-32.1-17.5-49.3-23.7c-11.5-4.2-23.2-8.2-35.3-10.6c-9.4-1.9-18.8-3.3-28.3-4.6
	c-22.3-3.1-44.1-2-65.2,6.2c-16.2,6.3-30.9,15.5-44.3,26.5c-20.8,17.1-39.4,36.4-56.2,57.6c-17.8,22.4-33.3,46.2-47.6,70.8
	c-10.4,17.9-19.7,36.3-27.9,55.2c-7.8,17.8-14.5,36-19.9,54.7c-3.8,13.1-6.5,26.6-7,40.3c-0.6,14.7,1.2,29.2,4.7,43.5
	c2.6,10.8,7.3,20.8,14,29.5c9.7,12.5,23,20.3,37.9,25.6c18.6,6.6,38.1,9.2,57.3,13.4c16.1,3.5,30.8,9.6,44.2,19.4
	c25.4,18.6,49.2,39.3,75.2,57.1c19.4,13.2,39.1,25.6,62.6,30.8c22.2,4.9,40.9-3.6,51.9-22.8c13.2-22.9,18.2-48.4,20.6-74.4
	c1.3-14.6,2.3-29.2,2.2-43.9c0-2.4,0-4.5,3.4-4.4c3.4,0.1,3.3,2.3,3.4,4.6c0.6,22.8-0.2,45.6-5.1,67.9c-1.4,6.3,1.4,8.1,5.4,10.2
	c22.7,11.8,46.7,20.5,71.7,25.5c12.2,2.4,24.7,3.7,37.1,4.5c20.3,1.3,40.5-1,60.4-4.9c13.7-2.7,27.1-6.8,40-12.4
	c3.3-1.4,5.8-0.6,7.3,3.5c3.8,10.7,5.1,21.9,6.2,33.1c1.2,12.3,1.4,24.8,1.1,37.2c-0.7,23.1-0.1,46.1-2.3,69.2
	c-1.3,13.6-1.9,27.4-3.4,41c-3.8,34.4-5.2,68.9-8.1,103.3c-1,12.1-1.1,24.4-1.7,36.6c-1.6,31.6-0.8,63.2-0.8,94.8
	c0,2.2,0.2,4.5,0.8,6.7c2.3,8.5,8.4,12.5,15.9,9.6c11.7-4.4,23.4-7.5,36-6.3c5.2,0.5,8.7-2.5,10.9-7.2c4.8-10.1,6.2-21.1,8.2-31.8
	c3.6-19.3,7.5-38.6,10.1-58.1c3-23,7.5-45.9,10.3-68.9c2.8-22.7,7.9-44.9,13.9-67c3.3-12.1,6.5-24.2,10-36.1
	c5.8-19.2,10.6-38.5,14.5-58c3.8-18.5,6.6-37.3,8.5-56.1c2.8-28.5,3.8-57,3.5-85.6c-0.2-21.1-2.4-42-5.4-62.9
	c-0.5-3.8-1.6-7-5.9-7.9c-15.2-3.3-30.4-4.4-45.7-0.8c-4.4,1-8.6,2.4-12.7,4.1c-2.8,1.2-5.4,0.9-6.6-2.1c-1.3-3,1.5-3.7,3.4-4.8
	c5.5-3.2,11.7-4.1,17.6-5.3c14.4-2.9,28.7-2.7,42.9,1.4c2.7,0.8,3.2-0.3,3.2-2.8c0-3.3-1.4-6.2-2.1-9.2
	c-5.5-23.4-14.2-45.4-27.6-65.4c-9.7-14.4-26.4-21.8-43.4-18.4c-12.4,2.5-24.6,5.9-35.8,12.2c-2,1.1-4.7,1.4-6.1-0.9
	c-1.3-2.2-0.4-4.3,2.1-5.6c19-9.9,38.9-15.9,60.6-12.7c4.6,0.7,5.5-0.5,5.4-4.7c-0.4-15.7-3.8-30.7-9.3-45.5
	c-8.8-23.7-21.6-44.8-38.3-63.5c-17-19.2-36.9-35-58.5-48.7c-16.6-10.5-34.3-18.9-52.8-25.5c-15.1-5.4-30.5-9.8-46.5-12.3
	C1044.3,125,1029.5,123.1,1013,123.7z M929.7,745.2c13.6-1.8,27.1-0.1,40.6-0.8c9-0.4,14.6,3.6,19.2,10.1c2.2,3.1,3.9,6.7,5.4,10.2
	c5.4,12.3,7.8,25.3,9.7,38.5c4,27.4,4,54.4-0.6,81.8c-1.9,11.2,3.5,19.5,15.2,20c6.8,0.3,13.5,0.4,20.3,0.5
	c27.9,0.3,55.3-4.2,82.6-9.7c6.5-1.3,13.1-3,19.2-6.1c2.6-1.3,3.3-2.7,2.1-5.3c-2.6-5.5-5-11.2-7.7-16.6
	c-15.6-30.6-31.9-60.8-44.6-92.8c-7.8-19.6-14.3-39.7-18.6-60.4c-3.2-15.7-4.8-31.8-7.1-47.7c-2-14.1-4.8-28-8.4-41.8
	c-4-15.3-7.9-30.7-12.4-45.9c-1.3-4.2-0.5-9.7-7.8-11.3c-23.5-5.2-46.1-13.4-67.8-24c-3.4-1.7-8-4.4-8.4,3.3
	c-0.1,1.7-1.2,3.5-1.7,5.3c-4.1,12.8-8.7,25.4-17.5,36c-7.9,9.6-17.7,16.4-29.9,18.3c-15.9,2.4-31.5-0.8-46-7.3
	c-20.8-9.3-39.8-21.7-57.9-35.3c-20.3-15.2-40.2-30.9-60.4-46.2c-10-7.6-20.6-13.8-33-17c-20.5-5.2-41.7-7.2-61.8-13.8
	c-3.9-1.3-7,0.2-9.5,3.1c-14.5,17.7-28.7,35.7-40.5,55.3c-9.2,15.3-17.1,31.4-22.9,48.4c-5.3,15.5-9,31.2-9.4,47.7
	c-0.5,22.6,1.1,45.1,5.1,67.3c2.1,11.6,4.9,23,8.4,34.3c3.3,10.8,7.4,21.4,11.6,31.9c7.8,19.5,17.9,37.8,30.3,54.5
	c12.3,16.6,26.3,31.9,43,44.6c14.7,11.1,30.5,20.1,47.7,26.1c16.6,5.7,34.1,7.4,51.6,7c19.2-0.5,38.4-0.9,57.5-2.3
	c17.2-1.3,34.5-3.1,51.1-7.7c14.2-3.9,27.8-3.2,41.6,0.1c17.1,4,34.3,7.2,51.8,5.5c10.8-1,20.5-5.1,24.8-16.2
	c2.7-7,4.6-14.4,4.7-21.9c0.3-18,1-36-1.4-54c-2-14.8-4.5-29.2-10-43c-3.2-8.1-7.1-16-17.7-16.1c-37.8-0.3-75.6-1.6-113.1,4.6
	c-13.5,2.2-26.8,5.2-39,12c-2.6,1.5-6.1,3-7.9-0.4c-2.1-3.9,1.4-5.5,4.4-6.9c22.5-10.5,46.7-13.6,70.9-15.5
	C900.3,744.3,915,745.2,929.7,745.2z M1049.7,570.2c2.1,7.4,4.1,13.8,5.8,20.3c8.4,31.2,16.2,62.5,20.1,94.6
	c3,24.5,8.1,48.5,16.4,71.8c12,33.6,28.4,65,44.7,96.6c5.2,10,10.9,19.7,13.7,30.8c1.3,5.3,0,9.2-5.2,11.5c-1.2,0.6-2.5,1.2-3.7,1.8
	c0.1,0.3,0.2,0.5,0.3,0.8c6.5,0,13.1,0,19.6,0c9.8,0,9.8,0,9.9-9.5c0.6-46.1,4.4-92.1,8.4-138c3.9-43.7,8.2-87.3,7.6-131.2
	c-0.3-19.2-0.7-38.4-4.8-57.2c-0.9-4.2-1.6-6.3-7.1-4.2c-25.7,9.7-52.4,14.4-79.9,14.9C1080.5,573.5,1065.6,572.4,1049.7,570.2z"/>
<path class="st2" d="M1049.7,570.2c15.9,2.3,30.8,3.3,45.9,3c27.5-0.5,54.2-5.1,79.9-14.9c5.4-2.1,6.2,0,7.1,4.2
	c4.1,18.9,4.5,38.1,4.8,57.2c0.7,43.9-3.7,87.5-7.6,131.2c-4.1,45.9-7.8,91.8-8.4,138c-0.1,9.5-0.1,9.5-9.9,9.5
	c-6.5,0-13.1,0-19.6,0c-0.1-0.3-0.2-0.5-0.3-0.8c1.2-0.6,2.4-1.2,3.7-1.8c5.2-2.3,6.5-6.2,5.2-11.5c-2.8-11.1-8.5-20.8-13.7-30.8
	c-16.3-31.6-32.7-63-44.7-96.6c-8.3-23.3-13.5-47.3-16.4-71.8c-3.9-32.1-11.7-63.5-20.1-94.6C1053.8,584,1051.8,577.5,1049.7,570.2z
	"/>
<path class="st0" d="M1065.4,359.6c0.4-16.5,12.6-29.6,29.1-29.6c17.4-0.1,29.8,11.6,30,30.1c0.1,15.8-12.4,29.4-30.2,29.1
	C1078.8,388.9,1066,376.7,1065.4,359.6z M1100.8,370.6c0.4,4.4,2.8,6.9,6.9,6.7c4.1-0.2,6.5-2.8,6.3-7c-0.2-3.9-2.5-6.2-6.5-6.2
	C1103.3,364.1,1101.2,366.6,1100.8,370.6z"/>
<path class="st0" d="M1134.8,544.1c-14.6,0.2-24.5-5-31.9-14.9c-1.2-1.6-3.1-3.6-0.6-5.3c1.9-1.3,4.3-1.3,6.3,0.5
	c0.4,0.4,0.8,0.8,1.2,1.2c11.6,13,25.9,13,41,8.1c3.4-1.1,6.6-2.6,9.9-3.8c2.1-0.7,4.3-1.7,5.5,1.5c1.1,2.9-0.4,4.2-2.6,5.3
	C1153.9,541.4,1143.7,544.6,1134.8,544.1z"/>
<path class="st2" d="M1100.8,370.6c0.4-3.9,2.4-6.5,6.7-6.5c4,0,6.3,2.2,6.5,6.2c0.2,4.2-2.3,6.9-6.3,7
	C1103.6,377.4,1101.2,375,1100.8,370.6z"/>
</svg>
